<mxfile host="app.diagrams.net" modified="2020-11-17T07:51:41.650Z" agent="5.0 (Windows NT 10.0; Win64; x64) AppleWebKit/537.36 (KHTML, like Gecko) Brave Chrome/83.0.4103.116 Safari/537.36" etag="tlwzNsnB9gHHuODGkEN8" version="13.8.8" type="github">
  <diagram id="zRs3t6ApieMg-6pE_E4A" name="Page-1">
    <mxGraphModel dx="934" dy="457" grid="1" gridSize="10" guides="1" tooltips="1" connect="1" arrows="1" fold="1" page="1" pageScale="1" pageWidth="827" pageHeight="1169" math="0" shadow="0">
      <root>
        <mxCell id="0" />
        <mxCell id="1" parent="0" />
        <mxCell id="hoQrCsJZsGQPlKo68S4Y-3" value="" style="edgeStyle=orthogonalEdgeStyle;rounded=0;orthogonalLoop=1;jettySize=auto;html=1;strokeColor=#FFF0ED;fontSize=12;fontColor=#141414;labelBackgroundColor=#000000;" edge="1" parent="1" source="hoQrCsJZsGQPlKo68S4Y-1" target="hoQrCsJZsGQPlKo68S4Y-2">
          <mxGeometry relative="1" as="geometry" />
        </mxCell>
        <mxCell id="hoQrCsJZsGQPlKo68S4Y-1" value="&lt;font style=&quot;font-size: 12px;&quot;&gt;початок&lt;/font&gt;" style="ellipse;whiteSpace=wrap;html=1;fontSize=12;fontColor=#141414;labelBackgroundColor=#000000;" vertex="1" parent="1">
          <mxGeometry x="130" y="10" width="120" height="40" as="geometry" />
        </mxCell>
        <mxCell id="hoQrCsJZsGQPlKo68S4Y-5" value="" style="edgeStyle=orthogonalEdgeStyle;rounded=0;orthogonalLoop=1;jettySize=auto;html=1;strokeColor=#FFF0ED;fontSize=12;fontColor=#141414;labelBackgroundColor=#000000;" edge="1" parent="1" source="hoQrCsJZsGQPlKo68S4Y-2" target="hoQrCsJZsGQPlKo68S4Y-4">
          <mxGeometry relative="1" as="geometry" />
        </mxCell>
        <mxCell id="hoQrCsJZsGQPlKo68S4Y-2" value="ввести 3 числа" style="shape=parallelogram;perimeter=parallelogramPerimeter;whiteSpace=wrap;html=1;fixedSize=1;fontSize=12;fontColor=#141414;labelBackgroundColor=#000000;" vertex="1" parent="1">
          <mxGeometry x="130" y="70" width="120" height="40" as="geometry" />
        </mxCell>
        <mxCell id="hoQrCsJZsGQPlKo68S4Y-8" value="" style="edgeStyle=orthogonalEdgeStyle;rounded=0;orthogonalLoop=1;jettySize=auto;html=1;strokeColor=#FFF0ED;fontSize=12;fontColor=#141414;labelBackgroundColor=#000000;" edge="1" parent="1" source="hoQrCsJZsGQPlKo68S4Y-4" target="hoQrCsJZsGQPlKo68S4Y-7">
          <mxGeometry relative="1" as="geometry" />
        </mxCell>
        <mxCell id="hoQrCsJZsGQPlKo68S4Y-15" style="edgeStyle=orthogonalEdgeStyle;rounded=0;orthogonalLoop=1;jettySize=auto;html=1;entryX=0.5;entryY=0;entryDx=0;entryDy=0;labelBackgroundColor=#000000;strokeColor=#FFF0ED;fontSize=12;fontColor=#141414;" edge="1" parent="1" source="hoQrCsJZsGQPlKo68S4Y-4" target="hoQrCsJZsGQPlKo68S4Y-14">
          <mxGeometry relative="1" as="geometry" />
        </mxCell>
        <mxCell id="hoQrCsJZsGQPlKo68S4Y-4" value="a&amp;gt;b" style="rhombus;whiteSpace=wrap;html=1;fontSize=12;fontColor=#141414;labelBackgroundColor=#000000;" vertex="1" parent="1">
          <mxGeometry x="140" y="130" width="100" height="40" as="geometry" />
        </mxCell>
        <mxCell id="hoQrCsJZsGQPlKo68S4Y-11" value="" style="edgeStyle=orthogonalEdgeStyle;rounded=0;orthogonalLoop=1;jettySize=auto;html=1;strokeColor=#FFF0ED;fontSize=12;fontColor=#141414;labelBackgroundColor=#000000;" edge="1" parent="1" source="hoQrCsJZsGQPlKo68S4Y-7" target="hoQrCsJZsGQPlKo68S4Y-10">
          <mxGeometry relative="1" as="geometry" />
        </mxCell>
        <mxCell id="hoQrCsJZsGQPlKo68S4Y-43" style="edgeStyle=orthogonalEdgeStyle;rounded=0;orthogonalLoop=1;jettySize=auto;html=1;labelBackgroundColor=#000000;strokeColor=#FFF0ED;fontSize=12;fontColor=#141414;" edge="1" parent="1" source="hoQrCsJZsGQPlKo68S4Y-7" target="hoQrCsJZsGQPlKo68S4Y-42">
          <mxGeometry relative="1" as="geometry" />
        </mxCell>
        <mxCell id="hoQrCsJZsGQPlKo68S4Y-7" value="b&amp;gt;c" style="rhombus;whiteSpace=wrap;html=1;fontSize=12;fontColor=#141414;labelBackgroundColor=#000000;" vertex="1" parent="1">
          <mxGeometry x="140" y="190" width="100" height="40" as="geometry" />
        </mxCell>
        <mxCell id="hoQrCsJZsGQPlKo68S4Y-13" value="" style="edgeStyle=orthogonalEdgeStyle;rounded=0;orthogonalLoop=1;jettySize=auto;html=1;strokeColor=#FFF0ED;fontSize=12;fontColor=#141414;labelBackgroundColor=#000000;" edge="1" parent="1" source="hoQrCsJZsGQPlKo68S4Y-10" target="hoQrCsJZsGQPlKo68S4Y-12">
          <mxGeometry relative="1" as="geometry" />
        </mxCell>
        <mxCell id="hoQrCsJZsGQPlKo68S4Y-10" value="вивести&amp;nbsp;" style="shape=parallelogram;perimeter=parallelogramPerimeter;whiteSpace=wrap;html=1;fixedSize=1;fontSize=12;fontColor=#141414;labelBackgroundColor=#000000;" vertex="1" parent="1">
          <mxGeometry x="130" y="250" width="120" height="40" as="geometry" />
        </mxCell>
        <mxCell id="hoQrCsJZsGQPlKo68S4Y-12" value="кінець&lt;br style=&quot;font-size: 12px;&quot;&gt;" style="ellipse;whiteSpace=wrap;html=1;fontSize=12;fontColor=#141414;labelBackgroundColor=#000000;" vertex="1" parent="1">
          <mxGeometry x="130" y="330" width="120" height="40" as="geometry" />
        </mxCell>
        <mxCell id="hoQrCsJZsGQPlKo68S4Y-17" value="" style="edgeStyle=orthogonalEdgeStyle;rounded=0;orthogonalLoop=1;jettySize=auto;html=1;labelBackgroundColor=#000000;strokeColor=#FFF0ED;fontSize=12;fontColor=#141414;" edge="1" parent="1" source="hoQrCsJZsGQPlKo68S4Y-14" target="hoQrCsJZsGQPlKo68S4Y-16">
          <mxGeometry relative="1" as="geometry" />
        </mxCell>
        <mxCell id="hoQrCsJZsGQPlKo68S4Y-14" value="a&amp;gt;c" style="rhombus;whiteSpace=wrap;html=1;fontSize=12;fontColor=#141414;labelBackgroundColor=#000000;" vertex="1" parent="1">
          <mxGeometry x="20" y="170" width="100" height="40" as="geometry" />
        </mxCell>
        <mxCell id="hoQrCsJZsGQPlKo68S4Y-18" style="edgeStyle=orthogonalEdgeStyle;rounded=0;orthogonalLoop=1;jettySize=auto;html=1;entryX=0.5;entryY=0;entryDx=0;entryDy=0;labelBackgroundColor=#000000;strokeColor=#FFF0ED;fontSize=12;fontColor=#141414;" edge="1" parent="1" source="hoQrCsJZsGQPlKo68S4Y-16" target="hoQrCsJZsGQPlKo68S4Y-12">
          <mxGeometry relative="1" as="geometry">
            <Array as="points">
              <mxPoint x="70" y="310" />
            </Array>
          </mxGeometry>
        </mxCell>
        <mxCell id="hoQrCsJZsGQPlKo68S4Y-16" value="вивести&amp;nbsp;" style="shape=parallelogram;perimeter=parallelogramPerimeter;whiteSpace=wrap;html=1;fixedSize=1;fontSize=12;fontColor=#141414;labelBackgroundColor=#000000;" vertex="1" parent="1">
          <mxGeometry x="10" y="250" width="120" height="40" as="geometry" />
        </mxCell>
        <mxCell id="hoQrCsJZsGQPlKo68S4Y-21" value="" style="edgeStyle=orthogonalEdgeStyle;rounded=0;orthogonalLoop=1;jettySize=auto;html=1;labelBackgroundColor=#000000;strokeColor=#FFF0ED;fontSize=12;fontColor=#141414;" edge="1" parent="1" source="hoQrCsJZsGQPlKo68S4Y-19" target="hoQrCsJZsGQPlKo68S4Y-20">
          <mxGeometry relative="1" as="geometry" />
        </mxCell>
        <mxCell id="hoQrCsJZsGQPlKo68S4Y-19" value="&lt;font style=&quot;font-size: 12px;&quot;&gt;початок&lt;/font&gt;" style="ellipse;whiteSpace=wrap;html=1;fontSize=12;fontColor=#141414;labelBackgroundColor=#000000;" vertex="1" parent="1">
          <mxGeometry x="390" y="10" width="120" height="40" as="geometry" />
        </mxCell>
        <mxCell id="hoQrCsJZsGQPlKo68S4Y-24" value="" style="edgeStyle=orthogonalEdgeStyle;rounded=0;orthogonalLoop=1;jettySize=auto;html=1;labelBackgroundColor=#000000;strokeColor=#FFF0ED;fontSize=12;fontColor=#141414;" edge="1" parent="1" source="hoQrCsJZsGQPlKo68S4Y-20" target="hoQrCsJZsGQPlKo68S4Y-23">
          <mxGeometry relative="1" as="geometry" />
        </mxCell>
        <mxCell id="hoQrCsJZsGQPlKo68S4Y-20" value="ввести 4 числа" style="shape=parallelogram;perimeter=parallelogramPerimeter;whiteSpace=wrap;html=1;fixedSize=1;fontSize=12;fontColor=#141414;labelBackgroundColor=#000000;" vertex="1" parent="1">
          <mxGeometry x="390" y="70" width="120" height="40" as="geometry" />
        </mxCell>
        <mxCell id="hoQrCsJZsGQPlKo68S4Y-26" value="" style="edgeStyle=orthogonalEdgeStyle;rounded=0;orthogonalLoop=1;jettySize=auto;html=1;labelBackgroundColor=#000000;strokeColor=#FFF0ED;fontSize=12;fontColor=#141414;" edge="1" parent="1" source="hoQrCsJZsGQPlKo68S4Y-23" target="hoQrCsJZsGQPlKo68S4Y-25">
          <mxGeometry relative="1" as="geometry" />
        </mxCell>
        <mxCell id="hoQrCsJZsGQPlKo68S4Y-23" value="y=(a+b+c+d)/4" style="rounded=0;whiteSpace=wrap;html=1;labelBackgroundColor=#000000;fontSize=12;fontColor=#141414;" vertex="1" parent="1">
          <mxGeometry x="390" y="130" width="120" height="40" as="geometry" />
        </mxCell>
        <mxCell id="hoQrCsJZsGQPlKo68S4Y-28" value="" style="edgeStyle=orthogonalEdgeStyle;rounded=0;orthogonalLoop=1;jettySize=auto;html=1;labelBackgroundColor=#000000;strokeColor=#FFF0ED;fontSize=12;fontColor=#141414;" edge="1" parent="1" source="hoQrCsJZsGQPlKo68S4Y-25" target="hoQrCsJZsGQPlKo68S4Y-27">
          <mxGeometry relative="1" as="geometry" />
        </mxCell>
        <mxCell id="hoQrCsJZsGQPlKo68S4Y-25" value="вивести&amp;nbsp;" style="shape=parallelogram;perimeter=parallelogramPerimeter;whiteSpace=wrap;html=1;fixedSize=1;fontSize=12;fontColor=#141414;labelBackgroundColor=#000000;" vertex="1" parent="1">
          <mxGeometry x="390" y="190" width="120" height="40" as="geometry" />
        </mxCell>
        <mxCell id="hoQrCsJZsGQPlKo68S4Y-27" value="кінець&lt;br style=&quot;font-size: 12px;&quot;&gt;" style="ellipse;whiteSpace=wrap;html=1;fontSize=12;fontColor=#141414;labelBackgroundColor=#000000;" vertex="1" parent="1">
          <mxGeometry x="390" y="250" width="120" height="40" as="geometry" />
        </mxCell>
        <mxCell id="hoQrCsJZsGQPlKo68S4Y-31" style="edgeStyle=orthogonalEdgeStyle;rounded=0;orthogonalLoop=1;jettySize=auto;html=1;labelBackgroundColor=#000000;strokeColor=#FFF0ED;fontSize=12;fontColor=#141414;" edge="1" parent="1" source="hoQrCsJZsGQPlKo68S4Y-29" target="hoQrCsJZsGQPlKo68S4Y-30">
          <mxGeometry relative="1" as="geometry" />
        </mxCell>
        <mxCell id="hoQrCsJZsGQPlKo68S4Y-29" value="&lt;font style=&quot;font-size: 12px;&quot;&gt;початок&lt;/font&gt;" style="ellipse;whiteSpace=wrap;html=1;fontSize=12;fontColor=#141414;labelBackgroundColor=#000000;" vertex="1" parent="1">
          <mxGeometry x="670" y="10" width="120" height="40" as="geometry" />
        </mxCell>
        <mxCell id="hoQrCsJZsGQPlKo68S4Y-33" value="" style="edgeStyle=orthogonalEdgeStyle;rounded=0;orthogonalLoop=1;jettySize=auto;html=1;labelBackgroundColor=#000000;strokeColor=#FFF0ED;fontSize=12;fontColor=#141414;" edge="1" parent="1" source="hoQrCsJZsGQPlKo68S4Y-30" target="hoQrCsJZsGQPlKo68S4Y-32">
          <mxGeometry relative="1" as="geometry" />
        </mxCell>
        <mxCell id="hoQrCsJZsGQPlKo68S4Y-30" value="ввести x (3)" style="shape=parallelogram;perimeter=parallelogramPerimeter;whiteSpace=wrap;html=1;fixedSize=1;labelBackgroundColor=#000000;fontSize=12;fontColor=#141414;" vertex="1" parent="1">
          <mxGeometry x="670" y="70" width="120" height="40" as="geometry" />
        </mxCell>
        <mxCell id="hoQrCsJZsGQPlKo68S4Y-35" value="" style="edgeStyle=orthogonalEdgeStyle;rounded=0;orthogonalLoop=1;jettySize=auto;html=1;labelBackgroundColor=#000000;strokeColor=#FFF0ED;fontSize=12;fontColor=#141414;" edge="1" parent="1" source="hoQrCsJZsGQPlKo68S4Y-32" target="hoQrCsJZsGQPlKo68S4Y-34">
          <mxGeometry relative="1" as="geometry" />
        </mxCell>
        <mxCell id="hoQrCsJZsGQPlKo68S4Y-37" style="edgeStyle=orthogonalEdgeStyle;rounded=0;orthogonalLoop=1;jettySize=auto;html=1;labelBackgroundColor=#000000;strokeColor=#FFF0ED;fontSize=12;fontColor=#141414;entryX=0.5;entryY=0;entryDx=0;entryDy=0;" edge="1" parent="1" source="hoQrCsJZsGQPlKo68S4Y-32" target="hoQrCsJZsGQPlKo68S4Y-36">
          <mxGeometry relative="1" as="geometry">
            <mxPoint x="610" y="270" as="targetPoint" />
            <Array as="points">
              <mxPoint x="620" y="150" />
              <mxPoint x="620" y="240" />
              <mxPoint x="730" y="240" />
            </Array>
          </mxGeometry>
        </mxCell>
        <mxCell id="hoQrCsJZsGQPlKo68S4Y-32" value="виконати до 2020" style="shape=hexagon;perimeter=hexagonPerimeter2;whiteSpace=wrap;html=1;fixedSize=1;labelBackgroundColor=#000000;fontSize=12;fontColor=#141414;" vertex="1" parent="1">
          <mxGeometry x="670" y="130" width="120" height="40" as="geometry" />
        </mxCell>
        <mxCell id="hoQrCsJZsGQPlKo68S4Y-39" style="edgeStyle=orthogonalEdgeStyle;rounded=0;orthogonalLoop=1;jettySize=auto;html=1;labelBackgroundColor=#000000;strokeColor=#FFF0ED;fontSize=12;fontColor=#141414;entryX=1;entryY=0.5;entryDx=0;entryDy=0;" edge="1" parent="1" source="hoQrCsJZsGQPlKo68S4Y-34" target="hoQrCsJZsGQPlKo68S4Y-32">
          <mxGeometry relative="1" as="geometry">
            <mxPoint x="830" y="150" as="targetPoint" />
            <Array as="points">
              <mxPoint x="810" y="210" />
              <mxPoint x="810" y="150" />
            </Array>
          </mxGeometry>
        </mxCell>
        <mxCell id="hoQrCsJZsGQPlKo68S4Y-34" value="y=3+3" style="rounded=0;whiteSpace=wrap;html=1;labelBackgroundColor=#000000;fontSize=12;fontColor=#141414;" vertex="1" parent="1">
          <mxGeometry x="670" y="190" width="120" height="40" as="geometry" />
        </mxCell>
        <mxCell id="hoQrCsJZsGQPlKo68S4Y-41" value="" style="edgeStyle=orthogonalEdgeStyle;rounded=0;orthogonalLoop=1;jettySize=auto;html=1;labelBackgroundColor=#000000;strokeColor=#FFF0ED;fontSize=12;fontColor=#141414;" edge="1" parent="1" source="hoQrCsJZsGQPlKo68S4Y-36" target="hoQrCsJZsGQPlKo68S4Y-40">
          <mxGeometry relative="1" as="geometry" />
        </mxCell>
        <mxCell id="hoQrCsJZsGQPlKo68S4Y-36" value="вивести&amp;nbsp;" style="shape=parallelogram;perimeter=parallelogramPerimeter;whiteSpace=wrap;html=1;fixedSize=1;fontSize=12;fontColor=#141414;labelBackgroundColor=#000000;" vertex="1" parent="1">
          <mxGeometry x="670" y="250" width="120" height="40" as="geometry" />
        </mxCell>
        <mxCell id="hoQrCsJZsGQPlKo68S4Y-40" value="кінець&lt;br style=&quot;font-size: 12px;&quot;&gt;" style="ellipse;whiteSpace=wrap;html=1;fontSize=12;fontColor=#141414;labelBackgroundColor=#000000;" vertex="1" parent="1">
          <mxGeometry x="670" y="310" width="120" height="40" as="geometry" />
        </mxCell>
        <mxCell id="hoQrCsJZsGQPlKo68S4Y-42" value="вивести&amp;nbsp;" style="shape=parallelogram;perimeter=parallelogramPerimeter;whiteSpace=wrap;html=1;fixedSize=1;fontSize=12;fontColor=#141414;labelBackgroundColor=#000000;" vertex="1" parent="1">
          <mxGeometry x="260" y="250" width="120" height="40" as="geometry" />
        </mxCell>
      </root>
    </mxGraphModel>
  </diagram>
</mxfile>
